<svg xmlns="http://www.w3.org/2000/svg" width="900" height="560" viewBox="0 0 900 560">
<rect width="100%" height="100%" fill="white"/>
<text x="450.0" y="28" text-anchor="middle" font-family="sans-serif" font-size="20">Quality-Latency Pareto</text>
<line x1="90" y1="470" x2="870" y2="470" stroke="black"/>
<line x1="90" y1="50" x2="90" y2="470" stroke="black"/>
<text x="480.0" y="535" text-anchor="middle" font-family="sans-serif" font-size="14">Latency (mean across directions)</text>
<text x="24" y="260.0" text-anchor="middle" transform="rotate(-90 24 260.0)" font-family="sans-serif" font-size="14">Quality (mean across directions)</text>
<circle cx="90.00" cy="448.17" r="5" fill="black"/>
<text x="98.00" y="440.17" font-family="sans-serif" font-size="12">pac_lacp064</text>
<circle cx="182.91" cy="322.17" r="5" fill="black"/>
<text x="190.91" y="314.17" font-family="sans-serif" font-size="12">pac_lacp072</text>
<circle cx="250.73" cy="322.43" r="5" fill="black"/>
<text x="258.73" y="314.43" font-family="sans-serif" font-size="12">pac_lacp080</text>
<circle cx="339.32" cy="199.74" r="5" fill="black"/>
<text x="347.32" y="191.74" font-family="sans-serif" font-size="12">pac_lacp088</text>
<circle cx="375.10" cy="232.30" r="5" fill="black"/>
<text x="383.10" y="224.30" font-family="sans-serif" font-size="12">pac_lacp096</text>
<circle cx="481.93" cy="184.68" r="5" fill="black"/>
<text x="489.93" y="176.68" font-family="sans-serif" font-size="12">pac_lacp104</text>
<circle cx="515.00" cy="94.30" r="5" fill="black"/>
<text x="523.00" y="86.30" font-family="sans-serif" font-size="12">pac_lacp112</text>
<circle cx="617.84" cy="148.30" r="5" fill="black"/>
<text x="625.84" y="140.30" font-family="sans-serif" font-size="12">pac_lacp120</text>
<circle cx="646.80" cy="127.49" r="5" fill="black"/>
<text x="654.80" y="119.49" font-family="sans-serif" font-size="12">pac_lacp128</text>
<circle cx="732.81" cy="50.00" r="5" fill="black"/>
<text x="740.81" y="42.00" font-family="sans-serif" font-size="12">pac_lacp136</text>
<circle cx="829.83" cy="79.11" r="5" fill="black"/>
<text x="837.83" y="71.11" font-family="sans-serif" font-size="12">pac_lacp144</text>
<circle cx="123.42" cy="470.00" r="5" fill="black"/>
<text x="131.42" y="462.00" font-family="sans-serif" font-size="12">pac_lacp064_10</text>
<circle cx="164.44" cy="328.30" r="5" fill="black"/>
<text x="172.44" y="320.30" font-family="sans-serif" font-size="12">pac_lacp072_10</text>
<circle cx="224.11" cy="305.70" r="5" fill="black"/>
<text x="232.11" y="297.70" font-family="sans-serif" font-size="12">pac_lacp080_10</text>
<circle cx="308.79" cy="286.55" r="5" fill="black"/>
<text x="316.79" y="278.55" font-family="sans-serif" font-size="12">pac_lacp088_10</text>
<circle cx="364.02" cy="193.49" r="5" fill="black"/>
<text x="372.02" y="185.49" font-family="sans-serif" font-size="12">pac_lacp096_10</text>
<circle cx="490.86" cy="176.51" r="5" fill="black"/>
<text x="498.86" y="168.51" font-family="sans-serif" font-size="12">pac_lacp104_10</text>
<circle cx="577.37" cy="126.85" r="5" fill="black"/>
<text x="585.37" y="118.85" font-family="sans-serif" font-size="12">pac_lacp112_10</text>
<circle cx="644.86" cy="123.53" r="5" fill="black"/>
<text x="652.86" y="115.53" font-family="sans-serif" font-size="12">pac_lacp120_10</text>
<circle cx="685.26" cy="78.85" r="5" fill="black"/>
<text x="693.26" y="70.85" font-family="sans-serif" font-size="12">pac_lacp128_10</text>
<circle cx="777.75" cy="59.70" r="5" fill="black"/>
<text x="785.75" y="51.70" font-family="sans-serif" font-size="12">pac_lacp136_10</text>
<circle cx="870.00" cy="64.68" r="5" fill="black"/>
<text x="878.00" y="56.68" font-family="sans-serif" font-size="12">pac_lacp144_10</text>
</svg>
